Coordinates
version=1
nRows=14
nColumns=33
inDegrees=yes

Units are S.I. units (second, meters, Newtons, ...)
Angles are in degrees.

endheader
time	ground_thorax_rot_x	ground_thorax_rot_y	ground_thorax_rot_z	ground_thorax_tx	ground_thorax_ty	ground_thorax_tz	clav_prot_r	clav_elev_r	scapula_abduction_r	scapula_elevation_r	scapula_upward_rot_r	scapula_winging_r	shoulder_elv_r	plane_of_elev_r	axial_rot_r	elbow_flexion_r	pro_sup_r	wrist_flex_r	wrist_dev_r	clav_prot_l	clav_elev_l	scapula_abduction_l	scapula_elevation_l	scapula_upward_rot_l	scapula_winging_l	shoulder_elv_l	plane_of_elev_l	axial_rot_l	elbow_flexion_l	pro_sup_l	wrist_flex_l	wrist_dev_l	
8.2200	-39.645333	-12.949703	17.215814	-240.290113	833.623662	5.072831	10.223387	-40.789058	31.100458	-45.000000	28.236048	2871.025194	-1572.269190	-90.000000	-82.411305	1805.389915	219.057834	17.219300	12.775029	14.825020	38.330914	-36.667674	-45.000000	-45.000000	-2071.303695	71.490191	24.964803	-12.433495	1088.060403	24.111818	7.430637	-22.846077	
8.2300	-39.592810	-13.019016	17.365596	-240.496089	833.024788	5.158642	10.261318	-40.814719	31.085171	-45.000000	28.092681	2871.000630	-1572.299202	-90.000000	-82.370255	1805.365280	219.319969	17.343425	12.774492	14.784894	38.264411	-36.518798	-45.000000	-45.000000	-2071.420866	71.498122	24.995973	-12.097964	1088.010766	23.949423	7.489274	-22.854476	
8.2400	-39.549218	-13.082397	17.505772	-240.635398	832.422061	5.238273	10.292623	-40.834210	31.079224	-45.000000	27.999454	2870.955265	-1572.325573	-90.000000	-82.332786	1805.329950	219.581253	17.479828	12.778406	14.718851	38.234947	-36.386931	-45.000000	-45.000000	-2071.538413	71.523706	25.005069	-11.803429	1088.001194	23.812340	7.571972	-22.890634	
8.2500	-39.511892	-13.166415	17.658824	-240.612705	831.807219	5.304844	10.339763	-40.850714	31.093481	-45.000000	27.918969	2870.911870	-1572.346234	-90.000000	-82.301520	1805.295200	219.824863	17.602502	12.784342	14.691194	38.199301	-36.290726	-45.000000	-45.000000	-2071.626312	71.533373	25.020359	-11.564204	1087.994901	23.716066	7.583158	-22.901889	
8.2600	-39.483085	-13.264623	17.812514	-240.443243	831.186544	5.357113	10.385756	-40.859871	31.120103	-45.000000	27.868766	2870.867126	-1572.367770	-90.000000	-82.269631	1805.256200	220.055065	17.718093	12.791494	14.681105	38.166169	-36.218419	-45.000000	-45.000000	-2071.693482	71.537900	25.041380	-11.380417	1088.001332	23.668067	7.550086	-22.904864	
8.2700	-39.464735	-13.372818	17.961726	-240.132934	830.566922	5.392927	10.430611	-40.864872	31.161120	-45.000000	27.848805	2870.821020	-1572.393186	-90.000000	-82.234073	1805.212129	220.269195	17.826290	12.800402	14.676452	38.149830	-36.173439	-45.000000	-45.000000	-2071.749896	71.548710	25.056774	-11.243785	1088.025865	23.674804	7.479980	-22.904301	
8.2800	-39.458236	-13.489024	18.098160	-239.718389	829.961020	5.411664	10.465246	-40.862845	31.202873	-45.000000	27.853240	2870.780960	-1572.426871	-90.000000	-82.190348	1805.165154	220.466447	17.923503	12.809253	14.680601	38.131368	-36.144084	-45.000000	-45.000000	-2071.790906	71.557750	25.084312	-11.137778	1088.054825	23.736392	7.379655	-22.898507	
8.2900	-39.466995	-13.600952	18.211830	-239.247089	829.384239	5.413543	10.487293	-40.859201	31.242760	-45.000000	27.878923	2870.744322	-1572.467710	-90.000000	-82.139479	1805.116544	220.644820	18.010015	12.819589	14.678592	38.135806	-36.135001	-45.000000	-45.000000	-2071.831703	71.578241	25.103289	-11.043672	1088.095474	23.848454	7.271654	-22.897723	
8.3000	-39.492171	-13.704525	18.298500	-238.760339	828.852467	5.399037	10.494626	-40.850810	31.269037	-45.000000	27.916140	2870.719380	-1572.512454	-90.000000	-82.084722	1805.073395	220.800904	18.078593	12.831357	14.688803	38.131124	-36.144186	-45.000000	-45.000000	-2071.855501	71.589980	25.136800	-10.950193	1088.129388	24.002762	7.153568	-22.893067	
8.3100	-39.534833	-13.795073	18.353920	-238.290244	828.380185	5.369070	10.488514	-40.842876	31.290045	-45.000000	27.965433	2870.698851	-1572.552662	-90.000000	-82.034531	1805.037201	220.931780	18.129190	12.846939	14.698785	38.148778	-36.167919	-45.000000	-45.000000	-2071.879029	71.610805	25.158911	-10.854337	1088.168825	24.188261	7.039802	-22.892721	
8.3200	-39.594212	-13.868024	18.377070	-237.858213	827.979338	5.325172	10.471217	-40.830179	31.296208	-45.000000	28.029472	2870.686727	-1572.583829	-90.000000	-81.993418	1805.013812	221.037553	18.159623	12.867040	14.717721	38.150381	-36.204303	-45.000000	-45.000000	-2071.884369	71.620140	25.190722	-10.763372	1088.202286	24.392394	6.930449	-22.891360	
8.3300	-39.665546	-13.925524	18.371096	-237.474337	827.657398	5.269613	10.439739	-40.817528	31.302195	-45.000000	28.108652	2870.676394	-1572.602003	-90.000000	-81.965344	1805.001227	221.119539	18.172486	12.891836	14.733776	38.176004	-36.238413	-45.000000	-45.000000	-2071.895503	71.641844	25.204525	-10.685109	1088.242658	24.599934	6.832809	-22.895053	
8.3400	-39.743978	-13.960940	18.340966	-237.138443	827.416644	5.205398	10.402470	-40.799715	31.299892	-45.000000	28.208090	2870.673536	-1572.609864	-90.000000	-81.947620	1805.001346	221.182074	18.170171	12.920936	14.750812	38.173911	-36.276078	-45.000000	-45.000000	-2071.892498	71.654850	25.223621	-10.631349	1088.279557	24.796289	6.745826	-22.897849	
8.3500	-39.820945	-13.985748	18.296155	-236.841699	827.253511	5.136125	10.353000	-40.781395	31.309960	-45.000000	28.323300	2870.669986	-1572.610217	-90.000000	-81.937435	1805.004343	221.229333	18.158000	12.951684	14.759873	38.198163	-36.293014	-45.000000	-45.000000	-2071.903019	71.688790	25.221451	-10.608503	1088.325728	24.965179	6.673039	-22.904411	
